<?xml version="1.0" encoding="utf-8"?>
<!-- Generator: Adobe Illustrator 28.0.0, SVG Export Plug-In . SVG Version: 6.00 Build 0)  -->
<svg version="1.1" id="Capa_1" xmlns="http://www.w3.org/2000/svg" xmlns:xlink="http://www.w3.org/1999/xlink" x="0px" y="0px"
	 viewBox="0 0 591.8 119.7" style="enable-background:new 0 0 591.8 119.7;" xml:space="preserve">
<style type="text/css">
	.st0{fill:#FF0000;}
	.st1{fill:#FFFFFF;}
	.st2{fill:#282828;}
	.st3{fill:#7D7B80;}
	.st4{font-family:'Calibri';}
	.st5{font-size:46.6131px;}
</style>
<g transform="matrix(5.715038, 0, 0, 5.715038, 409.288757, 277.787231)">
	<g>
		<path class="st0" d="M-43.6-44.5c-0.3-1.2-1.3-2.2-2.5-2.5c-2.2-0.6-11.2-0.6-11.2-0.6s-8.9,0-11.2,0.6c-1.2,0.3-2.2,1.3-2.5,2.5
			c-0.6,2.2-0.6,6.9-0.6,6.9s0,4.6,0.6,6.9c0.3,1.2,1.3,2.2,2.5,2.5c2.2,0.6,11.2,0.6,11.2,0.6s8.9,0,11.2-0.6
			c1.2-0.3,2.2-1.3,2.5-2.5C-43-33-43-37.7-43-37.7S-43-42.3-43.6-44.5z"/>
		<path class="st1" d="M-60.2-33.4l7.4-4.3l-7.4-4.3V-33.4z"/>
	</g>
	<g>
		<g id="youtube-paths">
			<path class="st2" d="M-37-34.7l-3.2-11.6h2.8l1.1,5.3c0.3,1.3,0.5,2.4,0.6,3.3h0.1c0.1-0.7,0.3-1.7,0.6-3.3l1.2-5.3h2.8
				l-3.2,11.6v5.6H-37L-37-34.7L-37-34.7z"/>
			<path class="st2" d="M-30.1-29.5c-0.6-0.4-1-1-1.2-1.8c-0.2-0.8-0.4-1.9-0.4-3.2v-1.8c0-1.3,0.1-2.4,0.4-3.2
				c0.3-0.8,0.7-1.4,1.3-1.8c0.6-0.4,1.3-0.6,2.3-0.6c0.9,0,1.7,0.2,2.2,0.6c0.6,0.4,1,1,1.2,1.8c0.3,0.8,0.4,1.9,0.4,3.2v1.8
				c0,1.3-0.1,2.4-0.4,3.2c-0.3,0.8-0.7,1.4-1.2,1.8c-0.6,0.4-1.3,0.6-2.3,0.6C-28.8-28.9-29.6-29.1-30.1-29.5z M-27-31.4
				c0.2-0.4,0.2-1.1,0.2-2v-3.9c0-0.9-0.1-1.6-0.2-2c-0.2-0.4-0.4-0.6-0.8-0.6c-0.4,0-0.7,0.2-0.8,0.6c-0.2,0.4-0.2,1.1-0.2,2v3.9
				c0,0.9,0.1,1.6,0.2,2c0.2,0.4,0.4,0.6,0.8,0.6C-27.4-30.8-27.1-31-27-31.4z"/>
			<path class="st2" d="M-14.8-29.1H-17l-0.2-1.5h-0.1c-0.6,1.2-1.5,1.7-2.7,1.7c-0.8,0-1.4-0.3-1.8-0.8c-0.4-0.5-0.6-1.4-0.6-2.6
				v-9.4h2.8v9.2c0,0.6,0.1,1,0.2,1.2c0.1,0.2,0.3,0.4,0.6,0.4c0.2,0,0.5-0.1,0.7-0.2c0.2-0.2,0.4-0.3,0.5-0.6v-10h2.8V-29.1z"/>
			<path class="st2" d="M-7.1-44h-2.8v14.9h-2.8V-44h-2.8v-2.3h8.4V-44z"/>
			<path class="st2" d="M-0.3-29.1h-2.2l-0.2-1.5h-0.1c-0.6,1.2-1.5,1.7-2.7,1.7c-0.8,0-1.4-0.3-1.8-0.8C-7.8-30.3-8-31.1-8-32.3
				v-9.4h2.8v9.2c0,0.6,0.1,1,0.2,1.2c0.1,0.2,0.3,0.4,0.6,0.4c0.2,0,0.5-0.1,0.7-0.2c0.2-0.2,0.4-0.3,0.5-0.6v-10h2.8V-29.1z"/>
			<path class="st2" d="M9-39.6c-0.2-0.8-0.4-1.4-0.8-1.7c-0.4-0.4-0.9-0.5-1.6-0.5c-0.5,0-1,0.1-1.5,0.4c-0.4,0.3-0.8,0.7-1,1.2h0
				v-6.6H1.4v17.8h2.3L4-30.3H4c0.2,0.4,0.5,0.8,1,1c0.4,0.2,0.9,0.4,1.5,0.4c1,0,1.7-0.4,2.1-1.3c0.4-0.9,0.7-2.3,0.7-4.1v-2
				C9.2-37.7,9.2-38.8,9-39.6z M6.4-34.5c0,0.9,0,1.6-0.1,2.1c-0.1,0.5-0.2,0.9-0.4,1.1c-0.2,0.2-0.4,0.3-0.7,0.3
				c-0.2,0-0.4-0.1-0.6-0.2c-0.2-0.1-0.4-0.3-0.5-0.5v-7.1c0.1-0.3,0.3-0.6,0.5-0.8c0.2-0.2,0.5-0.3,0.8-0.3c0.3,0,0.5,0.1,0.7,0.3
				c0.2,0.2,0.3,0.6,0.3,1.1c0.1,0.5,0.1,1.3,0.1,2.3L6.4-34.5L6.4-34.5z"/>
			<path class="st2" d="M13.2-33.8c0,0.8,0,1.4,0.1,1.8c0,0.4,0.1,0.7,0.3,0.9c0.2,0.2,0.4,0.3,0.7,0.3c0.4,0,0.7-0.2,0.9-0.5
				c0.2-0.3,0.2-0.9,0.3-1.6l2.4,0.1c0,0.1,0,0.3,0,0.4c0,1.2-0.3,2-1,2.6c-0.6,0.6-1.5,0.9-2.7,0.9c-1.4,0-2.4-0.4-2.9-1.3
				c-0.6-0.9-0.8-2.2-0.8-4v-2.2c0-1.9,0.3-3.3,0.9-4.1c0.6-0.9,1.6-1.3,3-1.3c1,0,1.7,0.2,2.2,0.5c0.5,0.4,0.9,0.9,1.1,1.7
				c0.2,0.8,0.3,1.8,0.3,3.1v2.1h-4.7V-33.8z M13.6-39.7c-0.1,0.2-0.2,0.5-0.3,0.9c0,0.4-0.1,1-0.1,1.8v0.9h2.1V-37
				c0-0.8,0-1.4-0.1-1.8c-0.1-0.4-0.2-0.7-0.3-0.9c-0.1-0.2-0.4-0.3-0.7-0.3C14-40,13.7-39.9,13.6-39.7z"/>
		</g>
	</g>
</g>
<text transform="matrix(1 0 0 1 525.0325 35.1035)" class="st3 st4 st5">CO</text>
</svg>
